<svg width="1440" height="1024" viewBox="0 0 1440 1024" fill="none" xmlns="http://www.w3.org/2000/svg">
<g clip-path="url(#clip0)">
<rect width="1440" height="1024" fill="white"/>
<rect opacity="0.3" x="364" y="-505.798" width="62" height="1064" rx="31" transform="rotate(-25 364 -505.798)" fill="#C4C4C4"/>
<rect opacity="0.3" x="107.63" y="-41.9478" width="56" height="842" rx="28" transform="rotate(-25 107.63 -41.9478)" fill="#C4C4C4"/>
<rect opacity="0.3" x="267" y="-36.5715" width="72" height="1087.51" rx="36" transform="rotate(-25 267 -36.5715)" fill="#C4C4C4"/>
<rect opacity="0.3" x="563" y="-497.012" width="26" height="1130" rx="13" transform="rotate(-25 563 -497.012)" fill="#C4C4C4"/>
<rect opacity="0.3" x="638" y="-594.982" width="45" height="1080" rx="22.5" transform="rotate(-25 638 -594.982)" fill="#C4C4C4"/>
<rect opacity="0.3" x="63" y="-30.2382" width="16" height="932" rx="8" transform="rotate(-25 63 -30.2382)" fill="#EBEAF4"/>
<rect opacity="0.3" x="140" y="-245.167" width="28" height="1118" rx="14" transform="rotate(-25 140 -245.167)" fill="#EBEAF4"/>
<rect opacity="0.3" x="833" y="-36.9406" width="38" height="1118" rx="19" transform="rotate(-25 833 -36.9406)" fill="#EBEAF4"/>
<rect opacity="0.3" x="412.512" y="-107.077" width="85" height="1114" rx="42.5" transform="rotate(-25 412.512 -107.077)" fill="#EBEAF4"/>
<rect opacity="0.3" x="440.649" y="-77.9475" width="39" height="876" rx="19.5" transform="rotate(-25 440.649 -77.9475)" fill="#C4C4C4"/>
</g>
<defs>
<clipPath id="clip0">
<rect width="1440" height="1024" fill="white"/>
</clipPath>
</defs>
</svg>
